<svg version="1.1" id="Layer_1" xmlns="http://www.w3.org/2000/svg" xmlns:xlink="http://www.w3.org/1999/xlink" x="0px" y="0px"
	 width="100%" viewBox="0 0 2000 2000" enable-background="new 0 0 2000 2000" xml:space="preserve">
<path fill="#000000" opacity="1.000000" stroke="none" 
	d="
M985.000000,2001.000000 
	C656.666687,2001.000000 328.833344,2001.000000 1.000000,2001.000000 
	C1.000000,1334.333374 1.000000,667.666687 1.000000,1.000000 
	C667.666687,1.000000 1334.333374,1.000000 2001.000000,1.000000 
	C2001.000000,667.666687 2001.000000,1334.333374 2001.000000,2001.000000 
	C1662.500000,2001.000000 1324.000000,2001.000000 985.000000,2001.000000 
M1094.301880,767.777283 
	C1094.301880,767.777283 1094.249268,767.737122 1094.756470,768.650269 
	C1094.837036,768.989014 1094.917725,769.327759 1094.979980,769.681458 
	C1094.979980,769.681458 1095.073730,769.789062 1096.590210,770.395630 
	C1097.018555,770.731750 1097.446777,771.067871 1098.042603,771.737610 
	C1099.573853,772.818115 1101.105225,773.898560 1104.143433,774.409363 
	C1104.651245,774.583862 1105.159180,774.758362 1105.618530,774.927307 
	C1105.618530,774.927307 1105.588501,774.937134 1106.499023,775.132751 
	C1111.722046,777.159973 1116.219116,781.153809 1122.506714,780.215759 
	C1132.631836,778.705078 1143.201782,782.986023 1153.098389,777.814148 
	C1158.123535,775.187988 1163.577393,773.284546 1168.321411,770.248047 
	C1172.249512,767.733826 1175.386108,763.997559 1178.942627,760.881470 
	C1180.555664,759.468018 1186.123779,751.231567 1187.368286,749.612915 
	C1190.295288,745.806091 1191.041260,741.238342 1192.795410,737.021057 
	C1198.127930,724.201111 1199.011841,711.730774 1192.782593,699.071289 
	C1192.213013,697.913635 1191.261353,696.554810 1191.463745,695.472046 
	C1192.482544,690.023254 1188.432373,686.069275 1186.030884,682.848572 
	C1179.259155,673.766785 1172.452271,664.192383 1160.293457,660.831116 
	C1154.533691,659.238708 1150.142578,654.302612 1142.991821,655.498535 
	C1137.121216,656.480347 1130.842529,655.345459 1124.780029,654.774414 
	C1117.194336,654.059875 1110.410400,656.731445 1104.327393,660.385742 
	C1097.750244,664.336853 1092.026367,669.701294 1085.864380,674.362183 
	C1085.221924,674.848083 1084.133789,674.744629 1082.691040,674.895996 
	C919.719971,674.902161 756.748840,674.908325 593.018127,675.138123 
	C591.841675,675.943420 590.708496,677.367676 589.481812,677.453308 
	C581.662354,677.999146 576.277466,682.978699 571.385437,688.020874 
	C567.182251,692.353088 564.230774,697.907959 560.798706,702.971619 
	C560.264771,703.759338 559.854553,704.806213 559.839355,705.740662 
	C559.760864,710.537781 559.690369,715.343262 559.891907,720.134277 
	C560.054810,724.006531 559.495422,728.479370 561.223389,731.594788 
	C564.632629,737.741516 567.419312,744.448242 573.799377,748.746765 
	C580.861145,753.504517 587.497192,758.247864 596.677246,758.241760 
	C755.905334,758.135559 915.133667,758.231934 1074.361328,757.967407 
	C1082.070923,757.954651 1087.777222,759.674133 1092.115723,765.789368 
	C1092.115723,765.789368 1092.176025,765.791626 1092.694580,766.312195 
	C1092.878906,766.473328 1093.063354,766.634460 1093.182007,766.801941 
	C1093.182007,766.801941 1093.130371,766.690063 1093.685303,767.289856 
	C1093.898071,767.460083 1094.110718,767.630249 1094.301880,767.777283 
M822.500000,760.003296 
	C909.461365,760.003296 996.422668,760.003296 1083.384033,760.003296 
	C1083.383423,759.712585 1083.382935,759.421936 1083.382324,759.131226 
	C939.853516,759.131226 796.324646,759.131226 652.795837,759.131226 
	C652.795166,759.421936 652.794495,759.712585 652.793823,760.003296 
	C709.029236,760.003296 765.264587,760.003296 822.500000,760.003296 
M616.534180,760.127075 
	C623.437805,760.127075 630.341431,760.127075 637.245056,760.127075 
	C637.239075,759.816345 637.233154,759.505676 637.227173,759.194946 
	C626.743591,759.194946 616.260071,759.194946 605.776489,759.194946 
	C605.766113,759.505676 605.755676,759.816345 605.745300,760.127075 
	C609.013672,760.127075 612.282043,760.127075 616.534180,760.127075 
z"/>
<path fill="#7E7F80" opacity="1.000000" stroke="none" 
	d="
M1083.252441,674.914673 
	C1084.133789,674.744629 1085.221924,674.848083 1085.864380,674.362183 
	C1092.026367,669.701294 1097.750244,664.336853 1104.327393,660.385742 
	C1110.410400,656.731445 1117.194336,654.059875 1124.780029,654.774414 
	C1130.842529,655.345459 1137.121216,656.480347 1142.991821,655.498535 
	C1150.142578,654.302612 1154.533691,659.238708 1160.293457,660.831116 
	C1172.452271,664.192383 1179.259155,673.766785 1186.030884,682.848572 
	C1188.432373,686.069275 1192.482544,690.023254 1191.463745,695.472046 
	C1191.261353,696.554810 1192.213013,697.913635 1192.782593,699.071289 
	C1199.011841,711.730774 1198.127930,724.201111 1192.795410,737.021057 
	C1191.041260,741.238342 1190.295288,745.806091 1187.368286,749.612915 
	C1186.123779,751.231567 1180.555664,759.468018 1178.942627,760.881470 
	C1175.386108,763.997559 1172.249512,767.733826 1168.321411,770.248047 
	C1163.577393,773.284546 1158.123535,775.187988 1153.098389,777.814148 
	C1143.201782,782.986023 1132.631836,778.705078 1122.506714,780.215759 
	C1116.219116,781.153809 1111.722046,777.159973 1106.018066,774.979980 
	C1105.537231,774.827148 1105.666992,774.932800 1105.666992,774.932800 
	C1105.159180,774.758362 1104.651245,774.583862 1103.485596,774.302612 
	C1101.177002,773.265198 1099.526001,772.334595 1097.875122,771.403992 
	C1097.446777,771.067871 1097.018555,770.731750 1096.040039,770.051392 
	C1095.522339,769.520569 1095.554932,769.334106 1095.587524,769.147583 
	C1095.391113,769.320557 1095.194824,769.493530 1094.998413,769.666504 
	C1094.917725,769.327759 1094.837036,768.989014 1094.526733,768.180969 
	C1094.296997,767.711670 1094.323364,767.800415 1094.323364,767.800415 
	C1094.110718,767.630249 1093.898071,767.460083 1093.449829,766.972656 
	C1093.214355,766.655518 1093.247925,766.795654 1093.247925,766.795654 
	C1093.063354,766.634460 1092.878906,766.473328 1092.446777,766.063416 
	C1092.198853,765.814636 1092.159668,765.829041 1092.159668,765.829041 
	C1087.777222,759.674133 1082.070923,757.954651 1074.361328,757.967407 
	C915.133667,758.231934 755.905334,758.135559 596.677246,758.241760 
	C587.497192,758.247864 580.861145,753.504517 573.799377,748.746765 
	C567.419312,744.448242 564.632629,737.741516 561.223389,731.594788 
	C559.495422,728.479370 560.054810,724.006531 559.891907,720.134277 
	C559.690369,715.343262 559.760864,710.537781 559.839355,705.740662 
	C559.854553,704.806213 560.264771,703.759338 560.798706,702.971619 
	C564.230774,697.907959 567.182251,692.353088 571.385437,688.020874 
	C576.277466,682.978699 581.662354,677.999146 589.481812,677.453308 
	C590.708496,677.367676 591.841675,675.943420 593.530273,675.439575 
	C596.150146,675.933105 598.254150,676.214294 600.366150,676.302368 
	C611.885620,676.782776 623.407043,677.215698 634.411011,677.819092 
	C623.403198,678.040100 612.868652,677.551758 602.436829,678.371155 
	C595.602417,678.908020 588.349426,680.176270 582.274658,683.144653 
	C566.413208,690.895203 558.408630,709.856934 562.743408,726.658325 
	C567.428040,744.816101 582.323792,756.296875 601.058655,756.258057 
	C644.697083,756.167603 688.335510,756.110840 731.973938,756.020996 
	C738.967041,756.006592 745.959900,755.891724 753.422974,755.869873 
	C808.198181,755.893127 862.503174,755.869934 917.291504,755.876587 
	C972.322815,755.906555 1026.870850,755.906555 1082.905029,755.906555 
	C1066.511230,729.945740 1066.725098,704.967834 1083.208618,678.975525 
	C1026.810303,678.975525 971.926575,678.975525 916.571655,678.960571 
	C863.702698,678.776978 811.304993,678.609314 758.907227,678.437134 
	C756.578674,678.429443 754.250244,678.380737 751.460815,678.299683 
	C714.851318,678.221130 678.702759,678.203857 642.554321,678.145630 
	C640.072937,678.141663 637.592041,677.832336 635.403198,677.336426 
	C636.987732,676.802612 638.280029,676.417664 639.572388,676.417480 
	C711.895020,676.408997 784.217651,676.444031 856.540283,676.442200 
	C869.195984,676.441895 881.851746,676.226257 894.507385,676.235962 
	C955.834351,676.283203 1017.161316,676.384949 1078.488281,676.383972 
	C1080.076294,676.383911 1081.664429,675.425964 1083.252441,674.914673 
M1147.754639,753.774841 
	C1149.954102,754.950867 1152.056396,756.403992 1154.382202,757.219849 
	C1156.431641,757.938843 1159.611206,758.963806 1160.704468,758.018372 
	C1162.184448,756.738525 1162.749512,753.673828 1162.630371,751.432129 
	C1162.420044,747.475769 1161.592041,743.516235 1160.672974,739.640930 
	C1158.626953,731.014099 1161.042480,723.960815 1167.499756,718.023376 
	C1170.918213,714.880066 1174.166138,711.539368 1177.346069,708.151550 
	C1181.075928,704.177795 1180.413086,701.785095 1175.164551,700.573059 
	C1169.331909,699.226318 1163.467773,697.921326 1157.549561,697.066223 
	C1151.158936,696.142822 1146.948364,692.611206 1144.075562,687.160889 
	C1141.439453,682.159180 1139.131348,676.976135 1136.328613,672.073120 
	C1133.527100,667.172302 1130.813965,667.280701 1128.142334,672.287292 
	C1125.559326,677.127869 1123.305908,682.143311 1120.837158,687.046387 
	C1117.387695,693.896973 1111.633057,697.176025 1104.135376,698.013367 
	C1099.358765,698.546875 1094.598755,699.381348 1089.904175,700.413147 
	C1088.298096,700.766113 1085.915649,701.920105 1085.671997,703.082214 
	C1085.339233,704.669189 1086.277466,706.992249 1087.441284,708.329102 
	C1090.154175,711.445068 1093.183838,714.329956 1096.342773,717.003967 
	C1103.821533,723.334534 1106.486328,731.033936 1104.122681,740.640564 
	C1103.054932,744.980530 1102.401245,749.474426 1102.091187,753.935486 
	C1101.700684,759.554871 1104.167114,760.963379 1109.055176,758.292358 
	C1112.266357,756.537659 1115.573730,754.923584 1118.630493,752.928833 
	C1128.282349,746.630493 1137.708496,747.303528 1147.754639,753.774841 
z"/>
<path fill="#FABF63" opacity="1.000000" stroke="none" 
	d="
M634.927795,677.664978 
	C623.407043,677.215698 611.885620,676.782776 600.366150,676.302368 
	C598.254150,676.214294 596.150146,675.933105 593.910156,675.327759 
	C756.748840,674.908325 919.719971,674.902161 1082.971680,674.905396 
	C1081.664429,675.425964 1080.076294,676.383911 1078.488281,676.383972 
	C1017.161316,676.384949 955.834351,676.283203 894.507385,676.235962 
	C881.851746,676.226257 869.195984,676.441895 856.540283,676.442200 
	C784.217651,676.444031 711.895020,676.408997 639.572388,676.417480 
	C638.280029,676.417664 636.987732,676.802612 635.372925,677.329651 
	C635.050415,677.651367 634.927795,677.664978 634.927795,677.664978 
z"/>
<path fill="#7E7F80" opacity="1.000000" stroke="none" 
	d="
M822.000000,760.003296 
	C765.264587,760.003296 709.029236,760.003296 652.793823,760.003296 
	C652.794495,759.712585 652.795166,759.421936 652.795837,759.131226 
	C796.324646,759.131226 939.853516,759.131226 1083.382324,759.131226 
	C1083.382935,759.421936 1083.383423,759.712585 1083.384033,760.003296 
	C996.422668,760.003296 909.461365,760.003296 822.000000,760.003296 
z"/>
<path fill="#7E7F80" opacity="1.000000" stroke="none" 
	d="
M616.042297,760.127075 
	C612.282043,760.127075 609.013672,760.127075 605.745300,760.127075 
	C605.755676,759.816345 605.766113,759.505676 605.776489,759.194946 
	C616.260071,759.194946 626.743591,759.194946 637.227173,759.194946 
	C637.233154,759.505676 637.239075,759.816345 637.245056,760.127075 
	C630.341431,760.127075 623.437805,760.127075 616.042297,760.127075 
z"/>
<path fill="#FABF63" opacity="1.000000" stroke="none" 
	d="
M1097.958862,771.570801 
	C1099.526001,772.334595 1101.177002,773.265198 1102.732178,774.587402 
	C1101.105225,773.898560 1099.573853,772.818115 1097.958862,771.570801 
z"/>
<path fill="#FABF63" opacity="1.000000" stroke="none" 
	d="
M1094.989258,769.673950 
	C1095.194824,769.493530 1095.391113,769.320557 1095.587524,769.147583 
	C1095.554932,769.334106 1095.522339,769.520569 1095.281738,769.748047 
	C1095.073730,769.789062 1094.979980,769.681458 1094.989258,769.673950 
z"/>
<path fill="#FABF63" opacity="1.000000" stroke="none" 
	d="
M1092.137695,765.809204 
	C1092.159668,765.829041 1092.198853,765.814636 1092.187500,765.803101 
	C1092.176025,765.791626 1092.115723,765.789368 1092.137695,765.809204 
z"/>
<path fill="#FABF63" opacity="1.000000" stroke="none" 
	d="
M1105.642822,774.930054 
	C1105.666992,774.932800 1105.537231,774.827148 1105.562866,774.882141 
	C1105.588501,774.937134 1105.618530,774.927307 1105.642822,774.930054 
z"/>
<path fill="#FABF63" opacity="1.000000" stroke="none" 
	d="
M1093.214966,766.798828 
	C1093.247925,766.795654 1093.214355,766.655518 1093.172363,766.672791 
	C1093.130371,766.690063 1093.182007,766.801941 1093.214966,766.798828 
z"/>
<path fill="#FABF63" opacity="1.000000" stroke="none" 
	d="
M1094.312622,767.788818 
	C1094.323364,767.800415 1094.296997,767.711670 1094.273193,767.724365 
	C1094.249268,767.737122 1094.301880,767.777283 1094.312622,767.788818 
z"/>
<path fill="#434342" opacity="1.000000" stroke="none" 
	d="
M634.411011,677.819092 
	C634.927795,677.664978 635.050415,677.651367 635.080688,677.658142 
	C637.592041,677.832336 640.072937,678.141663 642.554321,678.145630 
	C678.702759,678.203857 714.851318,678.221130 751.476135,678.744446 
	C751.973816,698.486023 751.921570,717.731812 752.058533,736.976257 
	C752.103210,743.260376 752.640747,749.541077 752.952881,755.823303 
	C745.959900,755.891724 738.967041,756.006592 731.973938,756.020996 
	C688.335510,756.110840 644.697083,756.167603 601.058655,756.258057 
	C582.323792,756.296875 567.428040,744.816101 562.743408,726.658325 
	C558.408630,709.856934 566.413208,690.895203 582.274658,683.144653 
	C588.349426,680.176270 595.602417,678.908020 602.436829,678.371155 
	C612.868652,677.551758 623.403198,678.040100 634.411011,677.819092 
M685.591553,723.073303 
	C685.254456,724.401428 684.917419,725.729553 684.564270,727.120972 
	C690.465027,727.120972 696.326721,727.120972 701.199951,727.120972 
	C700.620300,724.173950 700.112183,721.590759 699.463745,718.294128 
	C706.150146,719.106201 707.052673,722.913696 706.821411,727.285645 
	C709.295410,727.285645 711.493347,727.285645 713.978027,727.285645 
	C711.463928,724.074402 709.248291,721.244385 707.032593,718.414429 
	C707.720337,718.302246 708.408020,718.190125 709.095703,718.077942 
	C709.573486,714.978943 710.884216,711.719360 710.325439,708.820068 
	C709.567932,704.889771 705.516418,705.505005 702.436279,705.339233 
	C699.984802,705.207336 697.520569,705.312622 696.448730,705.312622 
	C696.448730,710.794067 696.679810,715.812378 696.324768,720.788818 
	C696.198669,722.556702 694.647522,724.222900 693.746948,725.935547 
	C692.035339,724.685974 689.640503,723.799255 688.746338,722.115479 
	C686.497131,717.880249 685.028870,713.237671 683.019897,708.862976 
	C682.404663,707.523132 681.051575,706.522217 680.036377,705.366089 
	C678.913025,706.586304 677.386719,707.623901 676.736511,709.058594 
	C674.008057,715.078796 671.541748,721.217773 668.958557,727.362915 
	C670.655334,727.362915 673.007812,727.362915 674.048157,727.362915 
	C675.072266,724.436401 675.372314,720.723999 676.738831,720.277832 
	C679.449280,719.392944 683.401123,717.875061 685.591553,723.073303 
M643.043640,726.767761 
	C647.402100,722.241211 646.773926,718.176392 641.309753,715.428894 
	C639.974060,714.757263 638.444397,714.246277 637.424988,713.236389 
	C636.481567,712.301636 635.266846,710.263306 635.653320,709.659424 
	C636.386780,708.513611 638.330200,707.252869 639.498718,707.474609 
	C641.460449,707.846802 643.208984,709.341980 645.019897,710.349487 
	C645.681519,705.947083 642.158386,703.546875 636.750732,705.429871 
	C634.946594,706.058044 632.651917,708.355713 632.554626,710.006409 
	C632.440308,711.946655 634.154480,714.311279 635.672363,715.933777 
	C636.954163,717.304016 639.351501,717.593018 640.757324,718.897156 
	C641.801453,719.865784 642.766418,721.901428 642.427429,723.074890 
	C642.145996,724.048706 639.781433,725.176147 638.570312,724.957581 
	C636.493958,724.582825 634.597595,723.210449 632.453430,722.173645 
	C631.365906,724.543152 631.994446,726.760193 635.077454,727.328857 
	C637.418518,727.760620 639.929626,727.270508 643.043640,726.767761 
M664.876953,707.329163 
	C666.079407,708.279541 667.281921,709.229858 668.528076,710.214783 
	C670.098633,706.075867 669.904053,705.479980 666.450378,705.364502 
	C661.641296,705.203674 656.822632,705.250000 652.009460,705.314331 
	C647.939575,705.368774 648.302673,707.440186 649.312378,709.290466 
	C652.025696,708.453430 654.316406,707.746765 657.493958,706.766541 
	C656.685730,714.495605 659.237305,721.083069 655.248169,727.315552 
	C657.858582,727.315552 660.342590,727.315552 663.357422,727.315552 
	C662.257935,725.664856 660.902344,724.552917 660.838745,723.371338 
	C660.589233,718.738220 660.598328,714.073486 660.899292,709.445740 
	C660.950012,708.665466 662.914185,708.009644 664.876953,707.329163 
M613.548157,727.666443 
	C615.711243,727.666443 617.874390,727.666443 620.037476,727.666443 
	C620.224060,727.218750 620.410583,726.771118 620.597107,726.323425 
	C614.572083,725.746643 615.386658,721.664795 615.464966,717.915710 
	C615.527222,714.933533 615.384766,711.944946 615.510681,708.966736 
	C615.673279,705.121765 613.708740,704.598572 610.889099,706.111694 
	C609.216736,707.009277 607.912170,708.592407 606.442261,709.867310 
	C606.675659,710.207703 606.909058,710.548096 607.142456,710.888550 
	C608.614502,710.551208 610.086548,710.213867 611.879150,709.803101 
	C611.879150,714.867798 611.879150,719.747742 611.879150,724.526672 
	C610.250610,725.180481 608.826050,725.752502 607.401489,726.324463 
	C607.442322,726.688843 607.483154,727.053223 607.523987,727.417664 
	C609.251343,727.500427 610.978638,727.583252 613.548157,727.666443 
z"/>
<path fill="#4F4F4E" opacity="1.000000" stroke="none" 
	d="
M753.422974,755.869873 
	C752.640747,749.541077 752.103210,743.260376 752.058533,736.976257 
	C751.921570,717.731812 751.973816,698.486023 751.937134,678.795898 
	C754.250244,678.380737 756.578674,678.429443 758.907227,678.437134 
	C811.304993,678.609314 863.702698,678.776978 916.563538,679.431519 
	C916.953857,705.227173 916.881042,730.536926 916.808228,755.846680 
	C862.503174,755.869934 808.198181,755.893127 753.422974,755.869873 
M784.409302,742.828918 
	C786.687012,741.935547 789.068054,740.114014 791.219543,740.353638 
	C795.004395,740.775269 798.646240,742.465332 802.352844,743.608582 
	C805.549011,744.594421 808.752014,745.558228 811.951904,746.531738 
	C811.901428,743.465149 812.393066,740.268494 811.694397,737.357483 
	C809.907349,729.912048 810.783264,723.719849 817.197021,718.586975 
	C819.836365,716.474731 821.440247,713.068787 823.515076,710.251282 
	C820.109924,709.225464 816.752014,707.562927 813.289734,707.305664 
	C805.974304,706.762146 801.119812,703.554321 798.687622,696.587036 
	C798.035706,694.719421 797.039734,692.934204 795.964355,691.264038 
	C795.108093,689.934143 793.890442,688.836975 792.833191,687.636475 
	C791.734009,688.745178 790.393066,689.703491 789.589111,690.995789 
	C788.188538,693.247009 787.007690,695.654968 785.934692,698.085510 
	C783.934387,702.616455 780.988342,705.773499 775.799133,706.627869 
	C770.897095,707.434937 766.064514,708.663940 760.116699,709.940063 
	C762.414612,712.553467 763.817444,714.595642 765.640747,716.142212 
	C772.238770,721.739075 776.991821,727.923706 773.748901,737.268921 
	C773.370117,738.360352 773.108643,739.545044 773.080444,740.693665 
	C773.033020,742.623474 773.216675,744.558960 773.303101,746.492065 
	C775.141113,746.188965 777.040100,746.080078 778.799866,745.527649 
	C780.520935,744.987366 782.100037,743.994873 784.409302,742.828918 
z"/>
<path fill="#707070" opacity="1.000000" stroke="none" 
	d="
M917.291504,755.876587 
	C916.881042,730.536926 916.953857,705.227173 917.034668,679.446533 
	C971.926575,678.975525 1026.810303,678.975525 1083.208618,678.975525 
	C1066.725098,704.967834 1066.511230,729.945740 1082.905029,755.906555 
	C1026.870850,755.906555 972.322815,755.906555 917.291504,755.876587 
M970.151428,705.680359 
	C968.014709,703.435059 965.622925,701.375427 963.814331,698.891357 
	C962.066772,696.491150 960.978638,693.620056 959.494995,691.016235 
	C957.671631,687.816345 955.507629,687.529358 953.517700,690.787964 
	C951.873718,693.480042 950.499756,696.341431 949.080200,699.165039 
	C947.182617,702.939514 944.533142,705.658630 940.111633,706.293701 
	C937.311157,706.695923 934.504272,707.179688 931.774719,707.906433 
	C929.799561,708.432434 927.946716,709.417786 926.039307,710.198242 
	C927.092285,712.122314 928.064758,714.097290 929.235168,715.947083 
	C929.751282,716.762756 930.648560,717.348389 931.408020,717.997192 
	C937.117676,722.875305 939.367676,728.847351 937.485779,736.294189 
	C936.960815,738.371826 936.971924,740.586914 936.760559,742.741272 
	C936.412476,746.289856 937.966736,747.481323 941.212219,746.067261 
	C944.415161,744.671814 947.517029,743.045532 950.673706,741.542297 
	C955.190308,739.391357 959.592041,739.197266 963.899597,742.178162 
	C965.533325,743.308777 967.265808,744.356079 969.078674,745.157593 
	C975.581543,748.032654 976.865051,747.094849 976.059326,740.224915 
	C975.884827,738.736938 975.729126,737.239136 975.422607,735.775635 
	C973.923218,728.615051 975.601135,722.595886 981.560364,718.001892 
	C983.004517,716.888550 984.446655,715.704102 985.622009,714.324219 
	C988.264587,711.221497 987.652710,709.237366 983.657043,708.314941 
	C979.444153,707.342346 975.154236,706.704102 970.151428,705.680359 
z"/>
<path fill="#707070" opacity="1.000000" stroke="none" 
	d="
M1147.414795,753.624084 
	C1137.708496,747.303528 1128.282349,746.630493 1118.630493,752.928833 
	C1115.573730,754.923584 1112.266357,756.537659 1109.055176,758.292358 
	C1104.167114,760.963379 1101.700684,759.554871 1102.091187,753.935486 
	C1102.401245,749.474426 1103.054932,744.980530 1104.122681,740.640564 
	C1106.486328,731.033936 1103.821533,723.334534 1096.342773,717.003967 
	C1093.183838,714.329956 1090.154175,711.445068 1087.441284,708.329102 
	C1086.277466,706.992249 1085.339233,704.669189 1085.671997,703.082214 
	C1085.915649,701.920105 1088.298096,700.766113 1089.904175,700.413147 
	C1094.598755,699.381348 1099.358765,698.546875 1104.135376,698.013367 
	C1111.633057,697.176025 1117.387695,693.896973 1120.837158,687.046387 
	C1123.305908,682.143311 1125.559326,677.127869 1128.142334,672.287292 
	C1130.813965,667.280701 1133.527100,667.172302 1136.328613,672.073120 
	C1139.131348,676.976135 1141.439453,682.159180 1144.075562,687.160889 
	C1146.948364,692.611206 1151.158936,696.142822 1157.549561,697.066223 
	C1163.467773,697.921326 1169.331909,699.226318 1175.164551,700.573059 
	C1180.413086,701.785095 1181.075928,704.177795 1177.346069,708.151550 
	C1174.166138,711.539368 1170.918213,714.880066 1167.499756,718.023376 
	C1161.042480,723.960815 1158.626953,731.014099 1160.672974,739.640930 
	C1161.592041,743.516235 1162.420044,747.475769 1162.630371,751.432129 
	C1162.749512,753.673828 1162.184448,756.738525 1160.704468,758.018372 
	C1159.611206,758.963806 1156.431641,757.938843 1154.382202,757.219849 
	C1152.056396,756.403992 1149.954102,754.950867 1147.414795,753.624084 
z"/>
<path fill="#FABF63" opacity="1.000000" stroke="none" 
	d="
M685.454224,722.683960 
	C683.401123,717.875061 679.449280,719.392944 676.738831,720.277832 
	C675.372314,720.723999 675.072266,724.436401 674.048157,727.362915 
	C673.007812,727.362915 670.655334,727.362915 668.958557,727.362915 
	C671.541748,721.217773 674.008057,715.078796 676.736511,709.058594 
	C677.386719,707.623901 678.913025,706.586304 680.036377,705.366089 
	C681.051575,706.522217 682.404663,707.523132 683.019897,708.862976 
	C685.028870,713.237671 686.497131,717.880249 688.746338,722.115479 
	C689.640503,723.799255 692.035339,724.685974 693.746948,725.935547 
	C694.647522,724.222900 696.198669,722.556702 696.324768,720.788818 
	C696.679810,715.812378 696.448730,710.794067 696.448730,705.312622 
	C697.520569,705.312622 699.984802,705.207336 702.436279,705.339233 
	C705.516418,705.505005 709.567932,704.889771 710.325439,708.820068 
	C710.884216,711.719360 709.573486,714.978943 709.095703,718.077942 
	C708.408020,718.190125 707.720337,718.302246 707.032593,718.414429 
	C709.248291,721.244385 711.463928,724.074402 713.978027,727.285645 
	C711.493347,727.285645 709.295410,727.285645 706.821411,727.285645 
	C707.052673,722.913696 706.150146,719.106201 699.463745,718.294128 
	C700.112183,721.590759 700.620300,724.173950 701.199951,727.120972 
	C696.326721,727.120972 690.465027,727.120972 684.564270,727.120972 
	C684.917419,725.729553 685.254456,724.401428 685.454224,722.683960 
M706.923706,709.285522 
	C704.827393,708.518616 702.731079,707.751648 700.231079,706.837097 
	C700.231079,710.579285 700.231079,713.137756 700.231079,715.662109 
	C707.234314,716.295715 708.061646,715.604553 706.923706,709.285522 
M679.613708,717.213684 
	C680.582886,717.126160 681.552063,717.038696 683.004456,716.907654 
	C682.105164,714.441406 681.325439,712.302979 680.545715,710.164612 
	C679.877319,710.257568 679.208862,710.350464 678.540466,710.443420 
	C678.639160,712.687622 678.737854,714.931824 679.613708,717.213684 
z"/>
<path fill="#FABF63" opacity="1.000000" stroke="none" 
	d="
M642.704346,726.979248 
	C639.929626,727.270508 637.418518,727.760620 635.077454,727.328857 
	C631.994446,726.760193 631.365906,724.543152 632.453430,722.173645 
	C634.597595,723.210449 636.493958,724.582825 638.570312,724.957581 
	C639.781433,725.176147 642.145996,724.048706 642.427429,723.074890 
	C642.766418,721.901428 641.801453,719.865784 640.757324,718.897156 
	C639.351501,717.593018 636.954163,717.304016 635.672363,715.933777 
	C634.154480,714.311279 632.440308,711.946655 632.554626,710.006409 
	C632.651917,708.355713 634.946594,706.058044 636.750732,705.429871 
	C642.158386,703.546875 645.681519,705.947083 645.019897,710.349487 
	C643.208984,709.341980 641.460449,707.846802 639.498718,707.474609 
	C638.330200,707.252869 636.386780,708.513611 635.653320,709.659424 
	C635.266846,710.263306 636.481567,712.301636 637.424988,713.236389 
	C638.444397,714.246277 639.974060,714.757263 641.309753,715.428894 
	C646.773926,718.176392 647.402100,722.241211 642.704346,726.979248 
z"/>
<path fill="#FABF63" opacity="1.000000" stroke="none" 
	d="
M664.435669,707.312744 
	C662.914185,708.009644 660.950012,708.665466 660.899292,709.445740 
	C660.598328,714.073486 660.589233,718.738220 660.838745,723.371338 
	C660.902344,724.552917 662.257935,725.664856 663.357422,727.315552 
	C660.342590,727.315552 657.858582,727.315552 655.248169,727.315552 
	C659.237305,721.083069 656.685730,714.495605 657.493958,706.766541 
	C654.316406,707.746765 652.025696,708.453430 649.312378,709.290466 
	C648.302673,707.440186 647.939575,705.368774 652.009460,705.314331 
	C656.822632,705.250000 661.641296,705.203674 666.450378,705.364502 
	C669.904053,705.479980 670.098633,706.075867 668.528076,710.214783 
	C667.281921,709.229858 666.079407,708.279541 664.435669,707.312744 
z"/>
<path fill="#FABF63" opacity="1.000000" stroke="none" 
	d="
M613.127075,727.666260 
	C610.978638,727.583252 609.251343,727.500427 607.523987,727.417664 
	C607.483154,727.053223 607.442322,726.688843 607.401489,726.324463 
	C608.826050,725.752502 610.250610,725.180481 611.879150,724.526672 
	C611.879150,719.747742 611.879150,714.867798 611.879150,709.803101 
	C610.086548,710.213867 608.614502,710.551208 607.142456,710.888550 
	C606.909058,710.548096 606.675659,710.207703 606.442261,709.867310 
	C607.912170,708.592407 609.216736,707.009277 610.889099,706.111694 
	C613.708740,704.598572 615.673279,705.121765 615.510681,708.966736 
	C615.384766,711.944946 615.527222,714.933533 615.464966,717.915710 
	C615.386658,721.664795 614.572083,725.746643 620.597107,726.323425 
	C620.410583,726.771118 620.224060,727.218750 620.037476,727.666443 
	C617.874390,727.666443 615.711243,727.666443 613.127075,727.666260 
z"/>
<path fill="#FABF63" opacity="1.000000" stroke="none" 
	d="
M784.075439,743.014893 
	C782.100037,743.994873 780.520935,744.987366 778.799866,745.527649 
	C777.040100,746.080078 775.141113,746.188965 773.303101,746.492065 
	C773.216675,744.558960 773.033020,742.623474 773.080444,740.693665 
	C773.108643,739.545044 773.370117,738.360352 773.748901,737.268921 
	C776.991821,727.923706 772.238770,721.739075 765.640747,716.142212 
	C763.817444,714.595642 762.414612,712.553467 760.116699,709.940063 
	C766.064514,708.663940 770.897095,707.434937 775.799133,706.627869 
	C780.988342,705.773499 783.934387,702.616455 785.934692,698.085510 
	C787.007690,695.654968 788.188538,693.247009 789.589111,690.995789 
	C790.393066,689.703491 791.734009,688.745178 792.833191,687.636475 
	C793.890442,688.836975 795.108093,689.934143 795.964355,691.264038 
	C797.039734,692.934204 798.035706,694.719421 798.687622,696.587036 
	C801.119812,703.554321 805.974304,706.762146 813.289734,707.305664 
	C816.752014,707.562927 820.109924,709.225464 823.515076,710.251282 
	C821.440247,713.068787 819.836365,716.474731 817.197021,718.586975 
	C810.783264,723.719849 809.907349,729.912048 811.694397,737.357483 
	C812.393066,740.268494 811.901428,743.465149 811.951904,746.531738 
	C808.752014,745.558228 805.549011,744.594421 802.352844,743.608582 
	C798.646240,742.465332 795.004395,740.775269 791.219543,740.353638 
	C789.068054,740.114014 786.687012,741.935547 784.075439,743.014893 
z"/>
<path fill="#4F4F4E" opacity="1.000000" stroke="none" 
	d="
M970.524658,705.800049 
	C975.154236,706.704102 979.444153,707.342346 983.657043,708.314941 
	C987.652710,709.237366 988.264587,711.221497 985.622009,714.324219 
	C984.446655,715.704102 983.004517,716.888550 981.560364,718.001892 
	C975.601135,722.595886 973.923218,728.615051 975.422607,735.775635 
	C975.729126,737.239136 975.884827,738.736938 976.059326,740.224915 
	C976.865051,747.094849 975.581543,748.032654 969.078674,745.157593 
	C967.265808,744.356079 965.533325,743.308777 963.899597,742.178162 
	C959.592041,739.197266 955.190308,739.391357 950.673706,741.542297 
	C947.517029,743.045532 944.415161,744.671814 941.212219,746.067261 
	C937.966736,747.481323 936.412476,746.289856 936.760559,742.741272 
	C936.971924,740.586914 936.960815,738.371826 937.485779,736.294189 
	C939.367676,728.847351 937.117676,722.875305 931.408020,717.997192 
	C930.648560,717.348389 929.751282,716.762756 929.235168,715.947083 
	C928.064758,714.097290 927.092285,712.122314 926.039307,710.198242 
	C927.946716,709.417786 929.799561,708.432434 931.774719,707.906433 
	C934.504272,707.179688 937.311157,706.695923 940.111633,706.293701 
	C944.533142,705.658630 947.182617,702.939514 949.080200,699.165039 
	C950.499756,696.341431 951.873718,693.480042 953.517700,690.787964 
	C955.507629,687.529358 957.671631,687.816345 959.494995,691.016235 
	C960.978638,693.620056 962.066772,696.491150 963.814331,698.891357 
	C965.622925,701.375427 968.014709,703.435059 970.524658,705.800049 
z"/>
<path fill="#434342" opacity="1.000000" stroke="none" 
	d="
M707.147400,709.643188 
	C708.061646,715.604553 707.234314,716.295715 700.231079,715.662109 
	C700.231079,713.137756 700.231079,710.579285 700.231079,706.837097 
	C702.731079,707.751648 704.827393,708.518616 707.147400,709.643188 
z"/>
<path fill="#4F4F4E" opacity="1.000000" stroke="none" 
	d="
M679.225098,717.194824 
	C678.737854,714.931824 678.639160,712.687622 678.540466,710.443420 
	C679.208862,710.350464 679.877319,710.257568 680.545715,710.164612 
	C681.325439,712.302979 682.105164,714.441406 683.004456,716.907654 
	C681.552063,717.038696 680.582886,717.126160 679.225098,717.194824 
z"/>
</svg>